<svg id="SvgjsSvg1001" width="288" height="288" xmlns="http://www.w3.org/2000/svg" version="1.1" xmlns:xlink="http://www.w3.org/1999/xlink" xmlns:svgjs="http://svgjs.com/svgjs"><defs id="SvgjsDefs1002"></defs><g id="SvgjsG1008" transform="matrix(1,0,0,1,0,0)"><svg xmlns="http://www.w3.org/2000/svg" enable-background="new 0 0 27 27" viewBox="0 0 27 27" width="288" height="288"><path fill="none" stroke="#ba2358" stroke-miterlimit="10" stroke-width="1.371" d="M4.6,26.2h17.9c0.5,0,0.9-0.4,1-0.9l2.7-15.2c0.1-0.6-0.4-1.2-1-1.2H1.9c-0.6,0-1.1,0.6-1,1.2
	l2.7,15.2C3.6,25.8,4.1,26.2,4.6,26.2z" class="colorStroke3c275a svgStroke"></path><line x1="8" x2="8" y1="8.9" y2="26.2" fill="none" stroke="#ba2358" stroke-miterlimit="10" stroke-width="1.371" class="colorStroke3c275a svgStroke"></line><line x1="19.1" x2="19.1" y1="8.9" y2="26.2" fill="none" stroke="#ba2358" stroke-miterlimit="10" stroke-width="1.371" class="colorStroke3c275a svgStroke"></line><line x1="13.5" x2="13.5" y1="8.9" y2="26.2" fill="none" stroke="#ba2358" stroke-miterlimit="10" stroke-width="1.371" class="colorStroke3c275a svgStroke"></line><path fill="none" stroke="#ba2358" stroke-miterlimit="10" stroke-width="1.371" d="M16.9 2.2h3.4c.6 0 1 .5 1 1v5.7M5.7 8.9V3.2c0-.6.5-1 1-1h3.4M15.3 3.3h-3.5c-.7 0-1.2-.6-1.2-1.2l0 0c0-.7.6-1.2 1.2-1.2h3.5c.7 0 1.2.6 1.2 1.2l0 0C16.5 2.8 16 3.3 15.3 3.3z" class="colorStroke3c275a svgStroke"></path></svg></g></svg>