<svg id="SvgjsSvg1015" width="288" height="288" xmlns="http://www.w3.org/2000/svg" version="1.1" xmlns:xlink="http://www.w3.org/1999/xlink" xmlns:svgjs="http://svgjs.com/svgjs"><defs id="SvgjsDefs1016"></defs><g id="SvgjsG1017"><svg xmlns="http://www.w3.org/2000/svg" enable-background="new -1 2 24 24" viewBox="-1 2 24 24" width="288" height="288"><path fill="none" stroke="#ba2358" stroke-miterlimit="10" stroke-width="1.643" d="M11,18.1c3.4,0,6.2-3.4,6.2-7.5C17.2,6.4,14.4,3,11,3C9.3,3,7.8,3.8,6.6,5.3
	c-1.1,1.4-1.8,3.3-1.8,5.3C4.8,14.7,7.6,18.1,11,18.1L11,18.1z M6.2,17.1C2.8,17,0,19.5,0,22.9C0,24,1,24.9,2.1,24.9h17.8
	c1.1,0,2.1-0.9,2.1-2.1 M22,22.9c0-3.4-2.8-5.9-6.1-5.8 M15.8,16.7" class="colorStroke3c275a svgStroke"></path></svg></g></svg>