<svg aria-hidden="true" style="position: absolute; width: 0; height: 0; overflow: hidden;" version="1.1" xmlns="http://www.w3.org/2000/svg" xmlns:xlink="http://www.w3.org/1999/xlink">
<defs>
<symbol id="icon-euro" viewBox="0 0 27 32">
<path fill="#3c275a" style="fill: var(--color1, #3c275a)" d="M26.611 28.295c-0.337-0.842-0.674-1.684-1.179-2.526-0.337-0.674-0.842-1.011-1.684-0.842-1.011 0.168-2.021 0.505-3.2 0.842-2.021 0.505-4.042 0.505-6.063-0.168-2.526-0.842-3.874-2.526-4.716-4.884h6.737c0.505 0 1.011-0.505 1.011-1.011v-2.189c0-0.505-0.505-1.011-1.011-1.011h-7.074c0-0.674 0-1.179 0-1.684h7.411c0.505 0 1.011-0.505 1.011-1.011v-2.189c0-0.505-0.505-1.011-1.011-1.011h-6.4c0 0 0 0 0 0 0.674-1.684 1.853-3.2 3.705-3.874 2.189-0.842 4.379-0.842 6.568-0.337 1.011 0.168 2.189 0.505 3.2 0.842 0.842 0.168 1.179 0 1.516-0.842s0.674-1.684 1.011-2.526c0.337-0.842 0.168-1.347-0.674-1.853 0-0.168-0.168-0.337-0.337-0.337-3.2-1.179-6.4-1.684-9.768-1.179-2.358 0.337-4.547 1.179-6.4 2.695-2.358 1.853-3.874 4.211-4.884 7.074v0.337h-3.368c-0.505 0-1.011 0.505-1.011 1.011v2.189c0 0.505 0.505 1.011 1.011 1.011h2.695v1.684h-2.695c-0.505 0-1.011 0.505-1.011 1.011v2.189c0 0.505 0.505 1.011 1.011 1.011h3.2c0.168 0.842 0.505 1.516 0.674 2.358 1.684 3.874 4.379 6.568 8.421 7.916 3.368 1.011 6.737 1.011 10.105 0.168 0.842-0.168 1.684-0.505 2.526-1.011s1.011-1.011 0.674-1.853v0z"></path>
</symbol>
</defs>
</svg>
